<svg id="visual" viewBox="0 0 1960 1280" width="1960" height="1280" xmlns="http://www.w3.org/2000/svg" xmlns:xlink="http://www.w3.org/1999/xlink" version="1.1"><rect width="1960" height="1280" fill="#0a303d"></rect><g><g transform="translate(577 926)"><path d="M129.1 -41.5C146.3 11.1 124.9 76.8 82.1 106.4C39.2 136 -25.1 129.5 -65.1 98.4C-105.1 67.2 -120.9 11.4 -106 -38C-91.1 -87.5 -45.5 -130.6 5.2 -132.3C55.9 -133.9 111.8 -94.2 129.1 -41.5Z" fill="none" stroke="#0ff71d" stroke-width="9"></path></g><g transform="translate(775 111)"><path d="M118.4 -42.9C131.3 1.1 104.2 53.7 64.5 80.6C24.8 107.5 -27.6 108.7 -64.7 83.1C-101.9 57.5 -123.9 5.1 -110.6 -39.5C-97.3 -84.1 -48.6 -120.8 2.1 -121.5C52.8 -122.2 105.6 -86.8 118.4 -42.9Z" fill="none" stroke="#0ff71d" stroke-width="9"></path></g><g transform="translate(1125 879)"><path d="M27.4 -8.7C31.7 4.4 28.8 20.1 19.2 27.3C9.5 34.5 -6.9 33.3 -18.1 25.1C-29.4 17 -35.4 1.7 -31.5 -10.8C-27.6 -23.4 -13.8 -33.3 -1.1 -32.9C11.5 -32.5 23.1 -21.9 27.4 -8.7Z" fill="none" stroke="#0ff71d" stroke-width="9"></path></g><g transform="translate(80 120)"><path d="M113.6 -38.3C127.5 5.7 105.3 60.1 65.2 89.1C25.1 118.1 -33 121.7 -71.2 94.7C-109.5 67.7 -128 10 -112.8 -35.8C-97.7 -81.6 -48.8 -115.6 0.5 -115.8C49.9 -115.9 99.8 -82.3 113.6 -38.3Z" fill="none" stroke="#0ff71d" stroke-width="9"></path></g><g transform="translate(1404 589)"><path d="M64.9 -17.6C74.2 7.7 65.2 42.5 42.3 59.4C19.4 76.3 -17.4 75.4 -38.9 58.6C-60.5 41.7 -66.8 9 -57.8 -15.8C-48.8 -40.6 -24.4 -57.5 1.7 -58.1C27.8 -58.6 55.5 -42.8 64.9 -17.6Z" fill="none" stroke="#0ff71d" stroke-width="9"></path></g><g transform="translate(920 1194)"><path d="M67.5 -22.7C76.7 6.6 66.2 41.6 41.8 59.9C17.4 78.2 -20.8 79.8 -45.1 62.1C-69.3 44.5 -79.6 7.6 -69.7 -22.5C-59.9 -52.6 -29.9 -76.1 -0.4 -75.9C29.1 -75.8 58.2 -52.1 67.5 -22.7Z" fill="none" stroke="#0ff71d" stroke-width="9"></path></g><g transform="translate(1921 687)"><path d="M90.5 -32.4C103.4 10.3 90.4 58.4 59.5 80.5C28.6 102.6 -20.1 98.7 -52.3 74.7C-84.6 50.7 -100.2 6.5 -88.8 -34.3C-77.3 -75 -38.6 -112.4 0.1 -112.4C38.8 -112.4 77.6 -75.1 90.5 -32.4Z" fill="none" stroke="#0ff71d" stroke-width="9"></path></g><g transform="translate(1679 952)"><path d="M100.4 -33.8C113.2 6.8 95 56.3 60.7 80.5C26.4 104.7 -24 103.6 -59.7 78.5C-95.4 53.4 -116.4 4.4 -104 -35.7C-91.6 -75.7 -45.8 -106.9 -1 -106.5C43.8 -106.2 87.6 -74.5 100.4 -33.8Z" fill="none" stroke="#0ff71d" stroke-width="9"></path></g><g transform="translate(1045 397)"><path d="M108.3 -36.7C123.1 10.3 105.8 66.1 69.3 91.8C32.7 117.5 -23.1 113.1 -59.4 85.8C-95.7 58.5 -112.5 8.2 -99.3 -36.5C-86.2 -81.3 -43.1 -120.5 1.8 -121.1C46.8 -121.7 93.5 -83.7 108.3 -36.7Z" fill="none" stroke="#0ff71d" stroke-width="9"></path></g><g transform="translate(143 591)"><path d="M57.3 -18.3C64.2 2.7 52.9 30 33.4 43.6C13.9 57.2 -13.8 57.2 -33 43.7C-52.1 30.2 -62.6 3.2 -55.6 -17.7C-48.7 -38.7 -24.4 -53.7 0.4 -53.8C25.2 -53.9 50.3 -39.2 57.3 -18.3Z" fill="none" stroke="#0ff71d" stroke-width="9"></path></g><g transform="translate(1913 144)"><path d="M32.5 -10C36.5 1.7 30.2 17.3 19.7 24.3C9.2 31.2 -5.6 29.6 -16.6 21.8C-27.6 14.1 -34.8 0.2 -31.4 -10.7C-28 -21.6 -14 -29.4 0.1 -29.5C14.3 -29.5 28.6 -21.7 32.5 -10Z" fill="none" stroke="#0ff71d" stroke-width="9"></path></g><g transform="translate(1491 29)"><path d="M72.9 -24C82.6 6.1 70.3 43 45.6 60.4C20.8 77.8 -16.4 75.8 -40.9 57.6C-65.4 39.5 -77.3 5.3 -68.3 -23.8C-59.4 -52.8 -29.7 -76.7 1 -77C31.6 -77.3 63.2 -54.1 72.9 -24Z" fill="none" stroke="#0ff71d" stroke-width="9"></path></g><g transform="translate(496 420)"><path d="M83.4 -29.3C93.2 2.8 75.7 41.5 48.5 59.7C21.2 77.8 -15.8 75.3 -43 56.3C-70.2 37.2 -87.5 1.6 -78.7 -29.3C-69.9 -60.1 -35 -86.1 1 -86.4C36.9 -86.7 73.7 -61.3 83.4 -29.3Z" fill="none" stroke="#0ff71d" stroke-width="9"></path></g><g transform="translate(127 1090)"><path d="M51.5 -18.9C58.1 3.8 49 29.4 30.1 43.7C11.2 57.9 -17.6 60.9 -35.5 48.1C-53.4 35.3 -60.4 6.7 -52.7 -17.5C-45 -41.6 -22.5 -61.4 0 -61.4C22.4 -61.4 44.8 -41.6 51.5 -18.9Z" fill="none" stroke="#0ff71d" stroke-width="9"></path></g><g transform="translate(1379 1151)"><path d="M27.6 -8.9C30.7 0.6 24.7 13.2 15 20.1C5.3 27 -8.1 28.3 -17.5 22C-27 15.6 -32.5 1.6 -28.9 -8.6C-25.3 -18.8 -12.6 -25.2 -0.2 -25.2C12.2 -25.1 24.5 -18.5 27.6 -8.9Z" fill="none" stroke="#0ff71d" stroke-width="9"></path></g><g transform="translate(1943 1238)"><path d="M107.5 -37.1C121.7 8.9 103.6 63.2 66.5 89.7C29.4 116.3 -26.6 115 -66.2 87.2C-105.8 59.4 -129 4.9 -115.3 -40.4C-101.5 -85.7 -50.7 -121.9 -2.1 -121.2C46.6 -120.6 93.3 -83 107.5 -37.1Z" fill="none" stroke="#0ff71d" stroke-width="9"></path></g></g></svg>