<svg id="visual" viewBox="0 0 960 540" width="960" height="540" xmlns="http://www.w3.org/2000/svg" xmlns:xlink="http://www.w3.org/1999/xlink" version="1.1"><rect width="960" height="540" fill="#1a2b3a"></rect><g><g transform="translate(536 445)"><path d="M0 -70L49.5 -49.5L70 0L49.5 49.5L0 70L-49.5 49.5L-70 0L-49.5 -49.5Z" fill="none" stroke="#53ee7d" stroke-width="2"></path></g><g transform="translate(588 247)"><path d="M0 -67L47.4 -47.4L67 0L47.4 47.4L0 67L-47.4 47.4L-67 0L-47.4 -47.4Z" fill="none" stroke="#53ee7d" stroke-width="2"></path></g><g transform="translate(797 456)"><path d="M0 -52L36.8 -36.8L52 0L36.8 36.8L0 52L-36.8 36.8L-52 0L-36.8 -36.8Z" fill="none" stroke="#53ee7d" stroke-width="2"></path></g><g transform="translate(540 16)"><path d="M0 -68L48.1 -48.1L68 0L48.1 48.1L0 68L-48.1 48.1L-68 0L-48.1 -48.1Z" stroke="#53ee7d" fill="none" stroke-width="2"></path></g><g transform="translate(268 116)"><path d="M0 -54L38.2 -38.2L54 0L38.2 38.2L0 54L-38.2 38.2L-54 0L-38.2 -38.2Z" stroke="#53ee7d" fill="none" stroke-width="2"></path></g><g transform="translate(413 232)"><path d="M0 -58L41 -41L58 0L41 41L0 58L-41 41L-58 0L-41 -41Z" stroke="#53ee7d" fill="none" stroke-width="2"></path></g><g transform="translate(266 402)"><path d="M0 -55L38.9 -38.9L55 0L38.9 38.9L0 55L-38.9 38.9L-55 0L-38.9 -38.9Z" stroke="#53ee7d" fill="none" stroke-width="2"></path></g><g transform="translate(951 223)"><path d="M0 -55L38.9 -38.9L55 0L38.9 38.9L0 55L-38.9 38.9L-55 0L-38.9 -38.9Z" stroke="#53ee7d" fill="none" stroke-width="2"></path></g><g transform="translate(24 359)"><path d="M0 -67L47.4 -47.4L67 0L47.4 47.4L0 67L-47.4 47.4L-67 0L-47.4 -47.4Z" stroke="#53ee7d" fill="none" stroke-width="2"></path></g><g transform="translate(101 67)"><path d="M0 -66L46.7 -46.7L66 0L46.7 46.7L0 66L-46.7 46.7L-66 0L-46.7 -46.7Z" stroke="#53ee7d" fill="none" stroke-width="2"></path></g><g transform="translate(959 497)"><path d="M0 -59L41.7 -41.7L59 0L41.7 41.7L0 59L-41.7 41.7L-59 0L-41.7 -41.7Z" stroke="#53ee7d" fill="none" stroke-width="2"></path></g><g transform="translate(750 117)"><path d="M0 -63L44.5 -44.5L63 0L44.5 44.5L0 63L-44.5 44.5L-63 0L-44.5 -44.5Z" stroke="#53ee7d" fill="none" stroke-width="2"></path></g><g transform="translate(172 531)"><path d="M0 -55L38.9 -38.9L55 0L38.9 38.9L0 55L-38.9 38.9L-55 0L-38.9 -38.9Z" stroke="#53ee7d" fill="none" stroke-width="2"></path></g><g transform="translate(958 78)"><path d="M0 -68L48.1 -48.1L68 0L48.1 48.1L0 68L-48.1 48.1L-68 0L-48.1 -48.1Z" stroke="#53ee7d" fill="none" stroke-width="2"></path></g><g transform="translate(407 78)"><path d="M0 -53L37.5 -37.5L53 0L37.5 37.5L0 53L-37.5 37.5L-53 0L-37.5 -37.5Z" stroke="#53ee7d" fill="none" stroke-width="2"></path></g><g transform="translate(750 315)"><path d="M0 -54L38.2 -38.2L54 0L38.2 38.2L0 54L-38.2 38.2L-54 0L-38.2 -38.2Z" stroke="#53ee7d" fill="none" stroke-width="2"></path></g><g transform="translate(12 197)"><path d="M0 -69L48.8 -48.8L69 0L48.8 48.8L0 69L-48.8 48.8L-69 0L-48.8 -48.8Z" stroke="#53ee7d" fill="none" stroke-width="2"></path></g><g transform="translate(15 536)"><path d="M0 -58L41 -41L58 0L41 41L0 58L-41 41L-58 0L-41 -41Z" stroke="#53ee7d" fill="none" stroke-width="2"></path></g><g transform="translate(369 516)"><path d="M0 -56L39.6 -39.6L56 0L39.6 39.6L0 56L-39.6 39.6L-56 0L-39.6 -39.6Z" stroke="#53ee7d" fill="none" stroke-width="2"></path></g><g transform="translate(263 257)"><path d="M0 -62L43.8 -43.8L62 0L43.8 43.8L0 62L-43.8 43.8L-62 0L-43.8 -43.8Z" stroke="#53ee7d" fill="none" stroke-width="2"></path></g><g transform="translate(891 352)"><path d="M0 -57L40.3 -40.3L57 0L40.3 40.3L0 57L-40.3 40.3L-57 0L-40.3 -40.3Z" stroke="#53ee7d" fill="none" stroke-width="2"></path></g></g></svg>